<?xml version="1.0" standalone="no"?>
<!DOCTYPE svg PUBLIC "-//W3C//DTD SVG 20010904//EN"
 "http://www.w3.org/TR/2001/REC-SVG-20010904/DTD/svg10.dtd">
<svg version="1.0" xmlns="http://www.w3.org/2000/svg"
 width="298.000000pt" height="298.000000pt" viewBox="0 0 298.000000 298.000000"
 preserveAspectRatio="xMidYMid meet">
<metadata>
Created by potrace 1.16, written by Peter Selinger 2001-2019
</metadata>
<g transform="translate(0.000000,298.000000) scale(0.100000,-0.100000)"
fill="#000000" stroke="none">
<path d="M1370 2884 c-14 -2 -59 -9 -100 -15 -107 -16 -256 -63 -368 -115
-427 -199 -724 -596 -799 -1069 -19 -121 -13 -382 12 -492 60 -272 196 -522
386 -712 230 -231 555 -384 862 -407 l90 -7 -5 24 c-3 13 -20 76 -37 139 -16
63 -42 176 -56 250 -14 74 -28 143 -31 153 -5 16 -3 17 15 5 12 -7 21 -17 21
-21 0 -17 65 -104 127 -170 35 -37 63 -71 63 -77 0 -5 8 -11 18 -14 9 -3 22
-18 29 -32 11 -24 9 -31 -31 -83 -56 -73 -70 -109 -57 -144 10 -25 14 -27 74
-27 83 0 251 31 352 64 487 162 840 558 952 1069 25 117 25 428 0 546 -83 383
-298 703 -612 906 -232 151 -459 222 -735 230 -80 2 -156 2 -170 -1z m186
-163 c-8 -12 38 -20 56 -10 8 5 28 4 44 -1 22 -6 24 -9 9 -10 -12 -1 -4 -6 20
-14 22 -7 39 -18 37 -25 -1 -7 2 -10 8 -6 6 3 22 -3 36 -14 15 -12 38 -21 53
-22 l26 -1 -25 -8 c-20 -7 -16 -8 25 -10 28 -2 40 -5 28 -7 -12 -2 -26 -10
-32 -17 -9 -11 -1 -12 38 -8 27 2 57 0 67 -6 14 -8 4 -10 -42 -9 -97 0 -133
-4 -145 -19 -9 -11 -9 -14 1 -14 10 0 10 -3 1 -14 -9 -11 -9 -15 0 -18 9 -3 9
-9 0 -26 -7 -13 -16 -20 -21 -17 -6 3 -7 0 -5 -7 3 -7 -17 -35 -44 -62 -42
-41 -48 -52 -42 -74 8 -29 55 -46 98 -37 24 6 63 -29 89 -79 12 -24 12 -25 -6
-16 -22 12 -40 13 -25 2 18 -13 38 -66 26 -70 -7 -2 -8 -10 -2 -20 15 -29 5
-171 -13 -191 -15 -16 -14 -19 9 -41 36 -33 25 -59 -25 -60 -20 0 -22 -2 -10
-10 11 -7 0 -9 -37 -6 -37 3 -51 1 -47 -7 3 -8 -12 -13 -43 -15 -93 -7 -86 -5
-68 -19 15 -10 12 -11 -16 -10 -19 1 -44 -2 -56 -6 -19 -7 -23 -4 -29 18 -3
14 -9 24 -12 21 -7 -8 19 -66 29 -66 23 0 -16 -35 -39 -36 -15 -1 -44 -5 -66
-9 -42 -9 -62 6 -46 34 7 14 -4 16 -86 16 -52 0 -94 -3 -94 -6 0 -4 -14 -12
-30 -18 -17 -5 -33 -17 -36 -26 -3 -8 -10 -15 -16 -15 -15 0 -40 -29 -34 -39
4 -5 0 -12 -6 -15 -7 -3 -1 -4 14 -1 22 4 26 2 21 -11 -3 -9 -20 -22 -37 -30
-20 -8 -25 -13 -13 -14 10 0 32 14 49 30 16 17 33 30 38 30 5 0 11 6 13 13 4
9 7 9 15 -1 11 -16 154 -10 160 7 6 17 30 13 28 -5 -2 -31 24 -27 30 4 6 31
31 42 90 42 22 0 23 -3 21 -81 -1 -72 1 -83 20 -98 12 -10 25 -38 31 -66 10
-46 9 -51 -20 -91 -28 -40 -33 -42 -72 -39 -22 2 -56 7 -75 11 -53 11 -35 -17
20 -30 25 -7 60 -24 79 -38 19 -14 50 -29 68 -33 17 -3 32 -11 32 -16 0 -6 6
-7 13 -3 7 5 7 1 -2 -10 -33 -40 -103 -64 -182 -64 -71 1 -119 -12 -119 -32 0
-6 9 -10 20 -10 11 0 23 -7 26 -15 5 -12 10 -10 24 8 16 20 29 24 84 25 57 2
66 0 66 -15 1 -17 1 -17 13 -1 15 19 97 23 97 5 0 -5 9 -2 20 8 25 22 35 15
26 -20 -5 -21 -11 -24 -34 -19 -21 4 -24 3 -12 -5 13 -9 13 -11 -2 -11 -9 0
-18 10 -21 23 -4 20 -4 20 -6 -4 -2 -35 -19 -49 -61 -49 -19 0 -42 -5 -50 -11
-11 -7 3 -9 50 -7 82 5 143 34 220 104 32 30 63 54 69 54 7 0 10 4 6 9 -3 5 1
28 8 49 14 40 6 79 -14 67 -5 -4 -7 -11 -3 -16 7 -12 -14 -39 -32 -39 -23 0
-43 30 -39 59 2 19 -2 31 -11 35 -8 3 -14 15 -14 26 0 21 14 27 25 10 3 -5 11
-10 16 -10 17 0 -56 58 -82 65 -32 8 -53 25 -68 53 -7 13 -23 27 -37 32 l-24
10 21 21 c18 18 25 20 40 10 14 -8 19 -8 19 0 0 6 7 9 15 5 8 -3 15 -2 15 3 0
5 -18 11 -39 15 -22 3 -43 11 -47 18 -4 6 -3 8 4 4 7 -4 10 2 10 16 -3 47 2
78 13 78 5 0 7 -4 4 -10 -9 -14 19 -12 33 2 7 7 41 14 75 15 100 4 122 7 120
20 -2 9 5 9 27 1 42 -14 37 -28 -8 -28 -21 0 -42 -3 -45 -7 -9 -8 24 -32 43
-32 9 0 4 6 -10 14 -24 13 -24 14 -4 15 12 0 36 -3 53 -6 26 -5 30 -10 25 -29
-4 -15 0 -24 11 -29 13 -5 15 -13 10 -34 -13 -48 -11 -66 7 -91 10 -13 18 -29
18 -35 0 -6 -13 9 -30 33 -22 34 -26 48 -18 58 8 10 4 18 -13 33 -27 22 -47
25 -69 9 -11 -8 -7 -9 16 -4 21 4 35 1 44 -10 11 -13 9 -15 -14 -15 -14 0 -26
-4 -26 -10 0 -5 5 -10 11 -10 5 0 7 -4 4 -10 -3 -6 1 -7 9 -4 11 4 16 0 16
-10 0 -9 4 -16 8 -16 4 0 8 -9 9 -20 1 -11 -3 -20 -8 -20 -6 0 -8 4 -4 9 3 5
1 12 -5 16 -5 3 -10 0 -11 -7 0 -7 -4 -34 -8 -60 -4 -27 -4 -48 1 -48 4 0 8
-11 8 -25 0 -14 5 -25 11 -25 5 0 8 -4 5 -9 -3 -4 3 -16 13 -25 32 -29 46 -91
33 -144 -32 -138 -62 -227 -80 -241 -10 -9 -29 -34 -42 -56 -27 -45 -70 -100
-70 -89 0 4 -8 -3 -19 -14 -10 -12 -25 -22 -33 -22 -8 0 -32 -8 -53 -19 -21
-10 -46 -16 -56 -14 -10 3 -40 0 -67 -7 -71 -16 -116 -1 -213 73 -86 65 -104
89 -170 239 -14 32 -30 55 -34 50 -5 -4 -5 1 -2 11 4 9 3 17 -1 17 -9 0 -30
48 -58 134 -15 47 -27 70 -36 67 -7 -2 -20 -6 -29 -8 -22 -6 -51 43 -93 158
-19 52 -46 119 -59 149 -14 30 -29 71 -32 92 -6 30 -4 37 12 41 16 4 16 6 -4
12 -27 9 -29 18 -8 35 17 14 20 70 4 70 -8 0 -8 4 0 14 13 16 11 37 -4 48 -6
4 -2 8 8 8 9 0 17 8 17 18 0 9 7 26 15 36 15 20 20 56 9 56 -4 0 -13 -8 -20
-17 -13 -17 -14 -17 -8 0 9 26 -14 21 -42 -10 l-25 -28 21 40 c11 22 20 45 20
51 0 6 7 17 15 24 17 14 21 35 5 25 -16 -10 -11 8 8 31 23 28 92 57 76 33 -4
-8 0 -8 15 0 11 7 21 14 21 17 0 3 -4 2 -10 -1 -5 -3 -10 -2 -10 3 0 6 8 13
17 16 15 6 15 8 3 16 -10 6 -11 10 -3 10 7 0 28 25 48 55 19 31 41 58 49 61
15 6 16 28 1 41 -4 4 -5 2 -1 -4 4 -7 3 -13 -2 -13 -12 0 -33 25 -27 32 3 2
-1 5 -8 5 -6 0 -21 4 -32 8 -18 6 -19 5 -3 -7 15 -13 14 -15 -15 -26 -25 -10
-35 -9 -54 4 -28 18 -21 36 11 28 16 -4 23 -1 23 10 0 9 -6 16 -12 16 -7 0
-28 3 -46 6 -26 4 -30 3 -19 -5 12 -9 10 -11 -10 -11 -20 0 -22 -2 -10 -10 13
-8 12 -10 -2 -10 -21 0 -22 9 -4 33 7 9 25 17 40 17 17 0 25 4 20 11 -4 8 0 7
15 -1 12 -6 27 -9 34 -6 7 2 1 8 -12 12 -23 7 -24 8 -5 15 11 5 1 6 -26 3 -42
-5 -46 -4 -47 18 -1 12 5 33 13 45 10 15 11 23 3 23 -8 0 -8 4 1 15 11 13 10
15 -6 10 -10 -3 -5 1 11 9 17 8 39 24 49 35 11 12 30 21 43 21 12 0 23 4 23 9
0 5 10 13 22 17 27 8 49 29 41 38 -4 3 8 6 25 6 17 0 34 5 37 10 4 6 32 9 65
8 32 -2 57 -1 54 3 -2 3 38 9 88 13 50 3 96 10 102 15 7 6 18 6 26 1 8 -5 21
-5 31 1 10 5 24 6 32 3 8 -3 18 -1 22 5 3 6 17 11 31 11 14 0 23 -4 20 -9z"/>
<path d="M1188 2649 c-3 -8 4 -19 16 -26 l21 -12 -22 -1 c-12 0 -25 -5 -29
-11 -3 -6 -15 -8 -26 -6 -14 4 -17 2 -9 -7 6 -7 8 -15 5 -19 -3 -3 3 -3 15 0
11 3 19 10 18 16 -1 6 9 12 23 14 14 1 17 -1 8 -3 -24 -7 -23 -25 3 -53 19
-20 20 -28 12 -56 -6 -19 -7 -39 -2 -46 12 -19 11 -52 -1 -44 -5 3 -23 8 -40
10 -27 3 -30 1 -31 -23 -1 -27 -1 -27 -8 -3 -11 41 -32 38 -29 -5 2 -26 8 -38
20 -42 10 -2 18 -9 18 -14 0 -6 6 -5 15 2 8 7 12 16 9 21 -2 5 11 8 30 7 27
-1 33 -5 29 -17 -4 -11 0 -9 10 4 13 17 13 20 1 23 -17 4 -18 18 -2 28 7 4 8
3 4 -4 -4 -7 -3 -12 2 -12 16 0 22 28 8 33 -9 4 -12 24 -10 69 4 90 7 101 28
81 4 -4 15 -8 24 -8 9 0 16 -6 14 -13 -1 -8 2 -11 8 -7 5 3 10 16 11 28 0 21
1 21 9 2 5 -11 9 -16 9 -12 1 4 10 3 20 -2 15 -8 20 -7 25 5 10 26 7 34 -11
34 -14 0 -15 -2 -5 -9 11 -7 11 -9 -2 -14 -11 -5 -16 -1 -16 13 0 11 4 20 9
20 5 0 11 6 14 14 4 10 -4 12 -34 10 -22 -2 -39 1 -39 7 0 6 4 8 9 4 5 -3 12
-1 16 5 3 6 -4 10 -17 10 -13 0 -29 5 -35 11 -9 9 -14 5 -18 -14 -8 -31 -22
-31 -51 2 -16 17 -23 20 -26 10z"/>
</g>
</svg>
